<svg width="128" height="128" viewBox="0 0 128 128" fill="none" xmlns="http://www.w3.org/2000/svg">
<path d="M79.7062 117.95C78.3935 119.263 76.613 120 74.7565 120H67C63.134 120 60 116.866 60 113V105.244C60 103.387 60.7375 101.607 62.0503 100.294L78.571 83.7731C79.5594 82.7846 80.0086 81.3978 80 80C79.9972 75.9495 81.2243 71.9937 83.519 68.6559C85.8137 65.3181 89.0677 62.7557 92.8506 61.3078C96.6334 59.8599 100.767 59.5946 104.704 60.5472C108.64 61.4998 112.195 63.6253 114.898 66.6425C117.6 69.6596 119.323 73.4262 119.838 77.4438C120.353 81.4615 119.636 85.5407 117.781 89.1419C115.927 92.743 113.023 95.6963 109.454 97.6109C106.878 98.9926 104.043 99.7864 101.151 99.9531C99.0283 100.076 96.9167 100.739 95.4131 102.243L79.7062 117.95ZM68 107.514C68 109.992 70.0084 112 72.4859 112C73.6756 112 74.8166 111.527 75.6579 110.686L93.6009 92.7431C94.5759 91.7681 95.9841 91.3634 97.328 91.672C99.8993 92.2839 102.6 92.0398 105.02 90.9769C107.44 89.914 109.447 88.0904 110.736 85.783C112.025 83.4755 112.526 80.8104 112.163 78.1924C111.799 75.5744 110.592 73.1465 108.723 71.2775C106.854 69.4085 104.426 68.2006 101.808 67.8371C99.1896 67.4736 96.5245 67.9745 94.2171 69.2637C91.9096 70.5529 90.086 72.5599 89.0231 74.9799C87.9602 77.3999 87.7162 80.1007 88.328 82.672C88.6366 84.0159 88.2319 85.4241 87.2569 86.3991L69.3139 104.342C68.4726 105.183 68 106.324 68 107.514Z" fill="#8D5DFF"/>
<path d="M100 84C102.209 84 104 82.2091 104 80C104 77.7909 102.209 76 100 76C97.7909 76 96 77.7909 96 80C96 82.2091 97.7909 84 100 84Z" fill="#8D5DFF"/>
<path d="M32 27C32 25.3431 33.3431 24 35 24H77C78.6569 24 80 25.3431 80 27V29C80 30.6569 78.6569 32 77 32H35C33.3431 32 32 30.6569 32 29V27ZM32 43C32 41.3431 33.3431 40 35 40H77C78.6569 40 80 41.3431 80 43V45C80 46.6569 78.6569 48 77 48H35C33.3431 48 32 46.6569 32 45V43ZM32 59C32 57.3431 33.3431 56 35 56H53C54.6569 56 56 57.3431 56 59V61C56 62.6569 54.6569 64 53 64H35C33.3431 64 32 62.6569 32 61V59ZM32 99C32 97.3431 33.3431 96 35 96H45C46.6569 96 48 97.3431 48 99V101C48 102.657 46.6569 104 45 104H35C33.3431 104 32 102.657 32 101V99Z" fill="#8D5DFF"/>
<path d="M48 116C48 118.209 46.2091 120 44 120H24C21.8783 120 19.8434 119.157 18.3431 117.657C16.8429 116.157 16 114.122 16 112V16C16 13.8783 16.8429 11.8434 18.3431 10.3431C19.8434 8.84285 21.8783 8 24 8H88C90.1217 8 92.1566 8.84285 93.6569 10.3431C95.1571 11.8434 96 13.8783 96 16V48C96 50.2091 94.2091 52 92 52C89.7909 52 88 50.2091 88 48V20C88 17.7909 86.2091 16 84 16H28C25.7909 16 24 17.7909 24 20V112H44C46.2091 112 48 113.791 48 116Z" fill="#8D5DFF"/>
</svg>
