<svg width="128" height="128" viewBox="0 0 128 128" fill="none" xmlns="http://www.w3.org/2000/svg">
<path d="M106.75 40.45C109.483 43.1833 111.567 46.2833 113 49.75C114.433 53.2167 115.167 56.9 115.2 60.8C115.2 61.9667 115.167 63.3667 115.1 65C115.033 66.6333 114.9 68.4 114.7 70.3C114.5 72.2 114.183 74.15 113.75 76.15C113.317 78.15 112.767 80.1333 112.1 82.1C111.1 84.9667 109.933 87.3 108.6 89.1C107.267 90.9 105.883 92.3167 104.45 93.35C103.017 94.3833 101.567 95.0833 100.1 95.45C98.6334 95.8167 97.2667 96 96.0001 96C94.9 96 93.9 95.8167 93.0001 95.45C92.1001 95.0833 91.2334 94.5833 90.4 93.95C89.5667 93.3167 88.8 92.6333 88.1001 91.9C87.4 91.1667 86.6834 90.3667 85.9501 89.5C85.2501 88.7 84.5667 87.9333 83.9 87.2C83.2334 86.4667 82.5167 85.8167 81.7501 85.25C80.9834 84.6833 80.2167 84.2 79.4501 83.8C78.6834 83.4 77.7834 83.2 76.75 83.2H51.25C50.2834 83.2333 49.4001 83.4333 48.6 83.8C47.8 84.1667 47.0167 84.6333 46.25 85.2C45.4834 85.7667 44.7834 86.4333 44.15 87.2C43.5167 87.9667 42.8167 88.7333 42.05 89.5C41.35 90.3 40.65 91.0833 39.95 91.85C39.25 92.6167 38.4834 93.3167 37.65 93.95C36.8167 94.5833 35.95 95.0667 35.05 95.4C34.15 95.7333 33.1334 95.9333 32 96C30.7334 96 29.3667 95.8167 27.9 95.45C26.4334 95.0833 24.9834 94.4 23.55 93.4C22.1167 92.4 20.7334 90.9833 19.4 89.15C18.0667 87.3167 16.9 84.9667 15.9 82.1C15.2334 80.1667 14.7 78.2 14.3 76.2C13.9 74.2 13.5834 72.2333 13.35 70.3C13.1167 68.3667 12.9667 66.6 12.9 65C12.8334 63.4 12.8 62 12.8 60.8C12.8 56.9333 13.5167 53.2667 14.95 49.8C16.3834 46.3333 18.4834 43.2167 21.25 40.45C23.95 37.7167 27.05 35.6333 30.55 34.2C34.05 32.7667 37.7334 32.0333 41.6 32H86.4C90.2667 32 93.9334 32.7167 97.4 34.15C100.867 35.5833 103.983 37.6833 106.75 40.45ZM106.05 80C106.683 78.2333 107.183 76.4 107.55 74.5C107.917 72.6 108.183 70.7833 108.35 69.05C108.517 67.3167 108.633 65.7167 108.7 64.25C108.767 62.7833 108.8 61.6333 108.8 60.8C108.8 57.7 108.217 54.8 107.05 52.1C105.883 49.4 104.283 47.0333 102.25 45C100.217 42.9667 97.8501 41.3667 95.15 40.2C92.4501 39.0333 89.5334 38.4333 86.4 38.4H41.6C38.5 38.4 35.6 38.9833 32.9 40.15C30.2 41.3167 27.8334 42.9167 25.8 44.95C23.7667 46.9833 22.1667 49.35 21 52.05C19.8334 54.75 19.2334 57.6667 19.2 60.8C19.2 61.6667 19.2167 62.8167 19.25 64.25C19.2834 65.6833 19.4 67.2667 19.6 69C19.8 70.7333 20.0834 72.5667 20.45 74.5C20.8167 76.4333 21.3167 78.2667 21.95 80C22.7834 82.4 23.7 84.25 24.7 85.55C25.7 86.85 26.6667 87.8 27.6 88.4C28.5334 89 29.4 89.35 30.2 89.45C31 89.55 31.6 89.6 32 89.6C32.7334 89.6 33.5334 89.1667 34.4 88.3C35.2667 87.4333 36.2 86.4333 37.2 85.3C38 84.3667 38.85 83.4167 39.75 82.45C40.65 81.4833 41.6667 80.5833 42.8 79.75C43.9334 78.9167 45.1834 78.2333 46.55 77.7C47.9167 77.1667 49.4334 76.8667 51.1 76.8H76.9C78.5667 76.8667 80.0834 77.1667 81.4501 77.7C82.8167 78.2333 84.05 78.9 85.15 79.7C86.2501 80.5 87.2667 81.4 88.2001 82.4C89.1334 83.4 90.0001 84.3667 90.8 85.3C91.7667 86.4 92.6834 87.3833 93.55 88.25C94.4167 89.1167 95.2334 89.5667 96.0001 89.6C96.4 89.6 96.9834 89.55 97.7501 89.45C98.5167 89.35 99.3834 89 100.35 88.4C101.317 87.8 102.3 86.85 103.3 85.55C104.3 84.25 105.217 82.4 106.05 80ZM38.4 57.6H44.8V64H38.4V70.4H32V64H25.6V57.6H32V51.2H38.4V57.6ZM96.0001 64C96.9 64 97.7334 64.1667 98.5001 64.5C99.2667 64.8333 99.9334 65.2833 100.5 65.85C101.067 66.4167 101.533 67.1 101.9 67.9C102.267 68.7 102.433 69.5333 102.4 70.4C102.4 71.3 102.233 72.1333 101.9 72.9C101.567 73.6667 101.117 74.3333 100.55 74.9C99.9834 75.4667 99.3 75.9333 98.5001 76.3C97.7001 76.6667 96.8667 76.8333 96.0001 76.8C95.1001 76.8 94.2667 76.6333 93.5001 76.3C92.7334 75.9667 92.0667 75.5167 91.5001 74.95C90.9334 74.3833 90.4667 73.7 90.1001 72.9C89.7334 72.1 89.5667 71.2667 89.6001 70.4C89.6001 69.5 89.7667 68.6667 90.1001 67.9C90.4334 67.1333 90.8834 66.4667 91.4501 65.9C92.0167 65.3333 92.7001 64.8667 93.5001 64.5C94.3 64.1333 95.1334 63.9667 96.0001 64ZM83.2001 51.2C84.1001 51.2 84.9334 51.3667 85.7001 51.7C86.4667 52.0333 87.1334 52.4833 87.7001 53.05C88.2667 53.6167 88.7334 54.3 89.1001 55.1C89.4667 55.9 89.6334 56.7333 89.6001 57.6C89.6001 58.5 89.4334 59.3333 89.1001 60.1C88.7667 60.8667 88.3167 61.5333 87.7501 62.1C87.1834 62.6667 86.5001 63.1333 85.7001 63.5C84.9 63.8667 84.0667 64.0333 83.2001 64C82.3 64 81.4667 63.8333 80.7001 63.5C79.9334 63.1667 79.2667 62.7167 78.7001 62.15C78.1334 61.5833 77.6667 60.9 77.3 60.1C76.9334 59.3 76.7667 58.4667 76.8 57.6C76.8 56.7 76.9667 55.8667 77.3 55.1C77.6334 54.3333 78.0834 53.6667 78.65 53.1C79.2167 52.5333 79.9 52.0667 80.7001 51.7C81.5001 51.3333 82.3334 51.1667 83.2001 51.2Z" fill="#8D5DFF"/>
</svg>
