<svg width="229" height="121" viewBox="0 0 229 121" fill="none" xmlns="http://www.w3.org/2000/svg">
<path d="M22.9498 95.9948V25.1243H27.49V95.9948H22.9498ZM37.1516 47.1052C36.8563 44.4845 35.6382 42.4544 33.4973 41.0148C31.3565 39.5568 28.6619 38.8278 25.4137 38.8278C23.0883 38.8278 21.0766 39.1969 19.3786 39.9352C17.6807 40.6549 16.3611 41.6515 15.4199 42.925C14.4971 44.18 14.0357 45.6103 14.0357 47.216C14.0357 48.5633 14.3494 49.726 14.9769 50.7041C15.6229 51.6823 16.4626 52.5036 17.4961 53.168C18.5481 53.8139 19.6739 54.3584 20.8736 54.8013C22.0732 55.2258 23.2267 55.5765 24.334 55.8533L29.8708 57.2929C31.6794 57.7358 33.5343 58.3356 35.4352 59.0923C37.3362 59.849 39.0987 60.8456 40.7228 62.0822C42.3469 63.3187 43.6573 64.8505 44.6539 66.6777C45.669 68.5048 46.1765 70.6918 46.1765 73.2387C46.1765 76.45 45.346 79.3015 43.685 81.793C42.0424 84.2845 39.6524 86.2501 36.5149 87.6896C33.3958 89.1292 29.6216 89.849 25.1922 89.849C20.9474 89.849 17.2747 89.1753 14.1741 87.828C11.0735 86.4808 8.64656 84.5706 6.89325 82.0975C5.13995 79.606 4.17102 76.653 3.98646 73.2387H12.5684C12.7345 75.2873 13.3989 76.9945 14.5617 78.3602C15.7428 79.7075 17.247 80.7133 19.0741 81.3777C20.9197 82.0237 22.9406 82.3467 25.1368 82.3467C27.5546 82.3467 29.7047 81.9683 31.5872 81.2116C33.4881 80.4365 34.983 79.366 36.0719 78.0003C37.1608 76.6161 37.7053 75.0012 37.7053 73.1557C37.7053 71.4762 37.2254 70.1012 36.2657 69.0308C35.3245 67.9603 34.0418 67.0745 32.4177 66.3731C30.812 65.6718 28.9941 65.0535 26.964 64.5183L20.2645 62.6912C15.7244 61.4547 12.1255 59.6368 9.46784 57.2375C6.82866 54.8382 5.50907 51.6638 5.50907 47.7143C5.50907 44.4476 6.39495 41.5962 8.16671 39.16C9.93847 36.7238 12.3377 34.8321 15.3645 33.4848C18.3912 32.1191 21.8056 31.4362 25.6075 31.4362C29.4463 31.4362 32.8329 32.1099 35.7674 33.4572C38.7203 34.8044 41.0458 36.6592 42.7437 39.0216C44.4417 41.3655 45.3275 44.06 45.4014 47.1052H37.1516ZM132.543 52.0883L129.913 57.7912H93.5088L95.5851 52.0883H132.543ZM127.588 63.3279L124.902 69.0861H93.5088L95.5851 63.3279H127.588ZM139.298 37.056L136.031 44.06C134.998 43.1742 133.872 42.3713 132.654 41.6515C131.436 40.9318 130.125 40.3596 128.723 39.9352C127.32 39.4922 125.816 39.2707 124.21 39.2707C121.257 39.2707 118.627 40.0643 116.32 41.6515C114.013 43.2387 112.195 45.6195 110.867 48.794C109.556 51.9499 108.901 55.881 108.901 60.5872C108.901 65.2935 109.556 69.2246 110.867 72.3805C112.195 75.5365 114.013 77.908 116.32 79.4952C118.627 81.064 121.257 81.8484 124.21 81.8484C125.834 81.8484 127.348 81.6361 128.75 81.2116C130.171 80.7871 131.463 80.2335 132.626 79.5506C133.807 78.8493 134.868 78.1111 135.81 77.3359L139.159 84.3122C137.203 86.084 134.933 87.422 132.349 88.3264C129.765 89.2307 127.052 89.6829 124.21 89.6829C119.578 89.6829 115.471 88.5109 111.891 86.167C108.329 83.8231 105.533 80.4826 103.503 76.1455C101.472 71.7899 100.457 66.6038 100.457 60.5872C100.457 54.5522 101.472 49.3569 103.503 45.0013C105.533 40.6457 108.329 37.296 111.891 34.9521C115.471 32.6082 119.578 31.4362 124.21 31.4362C127.163 31.4362 129.913 31.9253 132.46 32.9035C135.007 33.8632 137.286 35.2474 139.298 37.056ZM195.371 32.2114L208.936 62.7743L202.707 66.2901L186.18 32.2114H195.371ZM204.618 62.6912L218.127 32.2114H227.318L210.791 66.2901L204.618 62.6912ZM210.957 59.0923V88.9077H202.431V59.0923H210.957ZM222.972 60.3381V65.9302H190.139V60.3381H222.972ZM222.972 71.3008V76.893H190.139V71.3008H222.972Z" fill="#8D5DFF"/>
</svg>
