<svg width="128" height="128" viewBox="0 0 128 128" fill="none" xmlns="http://www.w3.org/2000/svg">
<path d="M36 28C22.8 28 12 38.8 12 52C12 59.936 15.908 67 21.876 71.376C12.1778 76.1865 5.20166 85.7445 4.14054 97.0033C3.98508 98.6528 5.34315 100 7 100H9C10.6569 100 11.9804 98.6502 12.1833 97.0058C13.6483 85.1331 23.7184 76 36 76C48.2816 76 58.3517 85.1331 59.8167 97.0058C60.0196 98.6502 61.3431 100 63 100H65C66.6569 100 67.9804 98.6502 68.1833 97.0058C69.6483 85.1331 79.7184 76 92 76C104.282 76 114.352 85.1331 115.817 97.0058C116.02 98.6502 117.343 100 119 100H121C122.657 100 124.015 98.6528 123.86 97.0033C122.799 85.7416 115.822 76.1866 106.124 71.376C109.179 69.152 111.666 66.2378 113.383 62.8708C115.099 59.5038 115.996 55.7791 116 52C116 38.8 105.2 28 92 28C78.8 28 68 38.8 68 52C68 59.936 71.908 67 77.876 71.376C72.0313 74.2488 67.1936 78.8243 64 84.5C60.8064 78.8243 55.9687 74.2488 50.124 71.376C53.1794 69.152 55.6665 66.2378 57.3826 62.8708C59.0988 59.5038 59.9956 55.7791 60 52C60 38.8 49.2 28 36 28ZM36 36C44.892 36 52 43.108 52 52C52 60.892 44.892 68 36 68C27.108 68 20 60.892 20 52C20 43.108 27.108 36 36 36ZM92 36C100.892 36 108 43.108 108 52C108 60.892 100.892 68 92 68C83.108 68 76 60.892 76 52C76 43.108 83.108 36 92 36Z" fill="#8D5DFF"/>
</svg>
