<svg width="128" height="128" viewBox="0 0 128 128" fill="none" xmlns="http://www.w3.org/2000/svg">
<path fill-rule="evenodd" clip-rule="evenodd" d="M39.1905 20.9999H87.9524C91.1855 20.9999 94.2862 22.2843 96.5723 24.5704C98.8585 26.8566 100.143 29.9573 100.143 33.1904V94.1428C100.143 97.3759 98.8585 100.477 96.5723 102.763C94.2862 105.049 91.1855 106.333 87.9524 106.333H39.1905C35.9574 106.333 32.8567 105.049 30.5705 102.763C28.2844 100.477 27 97.3759 27 94.1428V33.1904C27 29.9573 28.2844 26.8566 30.5705 24.5704C32.8567 22.2843 35.9574 20.9999 39.1905 20.9999Z" stroke="#8D5DFF" stroke-width="7" stroke-linecap="round" stroke-linejoin="round"/>
<path d="M86.1359 106.333L63.9187 94.4598C61.9719 93.4189 60.3443 91.8689 59.2096 89.9752C58.075 88.0816 57.4758 85.9153 57.4761 83.7078V43.6255C57.4758 41.4179 58.075 39.2516 59.2096 37.358C60.3443 35.4643 61.9719 33.9143 63.9187 32.8735L86.1359 20.9999" stroke="#8D5DFF" stroke-width="7" stroke-linecap="round" stroke-linejoin="round"/>
<path d="M69.6668 69.7618C73.0331 69.7618 75.762 67.0329 75.762 63.6666C75.762 60.3003 73.0331 57.5714 69.6668 57.5714C66.3005 57.5714 63.5715 60.3003 63.5715 63.6666C63.5715 67.0329 66.3005 69.7618 69.6668 69.7618Z" fill="#8D5DFF"/>
</svg>
