<svg width="128" height="128" viewBox="0 0 128 128" fill="none" xmlns="http://www.w3.org/2000/svg">
<path d="M37.3333 58.6667C37.3333 55.8377 38.4571 53.1246 40.4575 51.1242C42.4579 49.1238 45.171 48 48 48H101.333C104.162 48 106.875 49.1238 108.876 51.1242C110.876 53.1246 112 55.8377 112 58.6667V90.6667C112 93.4956 110.876 96.2087 108.876 98.2091C106.875 100.21 104.162 101.333 101.333 101.333H48C45.171 101.333 42.4579 100.21 40.4575 98.2091C38.4571 96.2087 37.3333 93.4956 37.3333 90.6667V58.6667Z" stroke="#8D5DFF" stroke-width="7" stroke-linecap="round" stroke-linejoin="round"/>
<path d="M90.6667 47.9998V37.3332C90.6667 34.5042 89.5429 31.7911 87.5425 29.7907C85.5421 27.7903 82.829 26.6665 80 26.6665H26.6667C23.8377 26.6665 21.1246 27.7903 19.1242 29.7907C17.1238 31.7911 16 34.5042 16 37.3332V69.3332C16 72.1621 17.1238 74.8753 19.1242 76.8756C21.1246 78.876 23.8377 79.9998 26.6667 79.9998H37.3333M64 74.6665C64 77.4955 65.1238 80.2086 67.1242 82.209C69.1246 84.2094 71.8377 85.3332 74.6667 85.3332C77.4956 85.3332 80.2087 84.2094 82.2091 82.209C84.2095 80.2086 85.3333 77.4955 85.3333 74.6665C85.3333 71.8375 84.2095 69.1244 82.2091 67.124C80.2087 65.1236 77.4956 63.9998 74.6667 63.9998C71.8377 63.9998 69.1246 65.1236 67.1242 67.124C65.1238 69.1244 64 71.8375 64 74.6665Z" stroke="#8D5DFF" stroke-width="7" stroke-linecap="round" stroke-linejoin="round"/>
</svg>
