<svg width="128" height="128" viewBox="0 0 128 128" fill="none" xmlns="http://www.w3.org/2000/svg">
<path d="M94.2 40C96.9615 40 99.2 42.2386 99.2 45V100C99.2 101.656 98.8881 103.203 98.2641 104.641C97.6402 106.078 96.7823 107.344 95.6904 108.438C94.5985 109.531 93.3195 110.391 91.8532 111.016C90.387 111.641 88.8428 111.969 87.2206 112H33.3129C31.6594 112 30.1152 111.688 28.6802 111.063C27.2451 110.438 25.9817 109.578 24.8898 108.484C23.7979 107.391 22.94 106.125 22.3161 104.688C21.6921 103.25 21.3646 101.688 21.3334 100V45C21.3334 42.2386 23.572 40 26.3334 40H31.3129C32.4174 40 33.3129 39.1046 33.3129 38V34C33.3129 31.5313 33.7808 29.2031 34.7167 27.0156C35.6526 24.8281 36.9473 22.9219 38.6007 21.2969C40.2541 19.6719 42.1571 18.3906 44.3097 17.4531C46.4622 16.5156 48.7864 16.0312 51.2821 16C54.5265 16 57.537 16.8125 60.3135 18.4375C63.09 16.8125 66.0693 16 69.2513 16C71.7159 16 74.04 16.4688 76.2238 17.4063C78.4075 18.3438 80.3105 19.6406 81.9327 21.2969C83.555 22.9531 84.834 24.8594 85.7699 27.0156C86.7058 29.1719 87.1894 31.5 87.2206 34V38C87.2206 39.1046 88.116 40 89.2206 40H94.2ZM81.2308 34C81.2308 32.375 80.9188 30.8281 80.2949 29.3594C79.671 27.8906 78.8131 26.625 77.7212 25.5625C76.6293 24.5 75.3503 23.6406 73.884 22.9844C72.4178 22.3281 70.8735 22 69.2513 22C67.8475 22 66.5216 22.2344 65.2738 22.7031C66.1785 23.8281 66.896 24.9375 67.4263 26.0313C67.9567 27.125 68.3466 28.2188 68.5962 29.3125C68.8458 30.4063 69.0173 31.5156 69.1109 32.6406C69.2045 33.7656 69.2513 34.9688 69.2513 36.25V38C69.2513 39.1046 70.1468 40 71.2513 40H79.2308C80.3354 40 81.2308 39.1046 81.2308 38V34ZM39.3026 38C39.3026 39.1046 40.198 40 41.3026 40H61.2616C62.3662 40 63.2616 39.1046 63.2616 38V34C63.2616 32.375 62.9496 30.8281 62.3257 29.3594C61.7018 27.8906 60.8438 26.625 59.752 25.5625C58.6601 24.5 57.381 23.6406 55.9148 22.9844C54.4485 22.3281 52.9043 22 51.2821 22C49.6287 22 48.0844 22.3125 46.6494 22.9375C45.2144 23.5625 43.9509 24.4219 42.859 25.5156C41.7671 26.6094 40.9092 27.8906 40.2853 29.3594C39.6614 30.8281 39.3338 32.375 39.3026 34V38ZM76.8321 106C75.7714 104.125 75.2411 102.125 75.2411 100V49C75.2411 47.3431 73.8979 46 72.2411 46H32.3231C29.5617 46 27.3231 48.2386 27.3231 51V100C27.3231 100.844 27.4791 101.625 27.7911 102.344C28.103 103.063 28.5242 103.688 29.0545 104.219C29.5849 104.75 30.2244 105.188 30.9731 105.531C31.7218 105.875 32.5018 106.031 33.3129 106H76.8321ZM93.2103 51C93.2103 48.2386 90.9717 46 88.2103 46H84.2308C82.574 46 81.2308 47.3431 81.2308 49V100C81.2308 100.844 81.3868 101.625 81.6988 102.344C82.0107 103.063 82.4319 103.688 82.9622 104.219C83.4926 104.75 84.1321 105.188 84.8808 105.531C85.6295 105.875 86.4094 106.031 87.2206 106C88.0629 106 88.8428 105.844 89.5603 105.531C90.2778 105.219 90.9017 104.797 91.4321 104.266C91.9624 103.734 92.3992 103.094 92.7424 102.344C93.0855 101.594 93.2415 100.813 93.2103 100V51Z" fill="#8D5DFF"/>
</svg>
