<svg width="128" height="128" viewBox="0 0 128 128" fill="none" xmlns="http://www.w3.org/2000/svg">
<path d="M55.2191 79.5823L55.1763 79.4823C54.5341 79.3063 53.8972 79.1111 53.2667 78.8967L53.2192 78.8777C46.6569 76.6274 40.961 72.3769 36.9286 66.721C32.8963 61.0652 30.7294 54.2871 30.7313 47.3357C30.7292 38.8044 33.9914 30.5971 39.8461 24.4044C45.7008 18.2116 53.7021 14.505 62.2018 14.0479C70.7016 13.5908 79.0527 16.4181 85.5349 21.9475C92.0171 27.4768 96.1368 35.2871 97.0454 43.7697C97.2544 45.7312 95.6394 47.3357 93.6727 47.3357C91.7061 47.3357 90.1338 45.7265 89.8725 43.7744C89.2407 39.167 87.3961 34.8113 84.5285 31.155C81.6609 27.4987 77.8735 24.6736 73.5558 22.9702C69.238 21.2667 64.5456 20.7463 59.9607 21.4625C55.3758 22.1786 51.0639 24.1055 47.468 27.045C43.8722 29.9845 41.1222 33.8307 39.5006 38.1882C37.8791 42.5457 37.4444 47.2574 38.2414 51.839C39.0384 56.4206 41.0382 60.7069 44.0354 64.2574C47.0325 67.8078 50.9189 70.4943 55.2951 72.0408C56.1766 70.0437 57.7163 68.4109 59.6561 67.4163C61.5959 66.4216 63.8179 66.1254 65.9496 66.5774C68.0814 67.0294 69.9933 68.202 71.3651 69.8988C72.7368 71.5956 73.4849 73.7134 73.484 75.8973C73.484 78.7444 72.2394 81.2963 70.268 83.0388C68.533 84.5748 66.2982 85.423 63.9834 85.4241C62.1093 85.4308 60.2755 84.879 58.715 83.8389C57.1545 82.7987 55.9376 81.3171 55.2191 79.5823ZM44.9679 83.0436C41.4668 81.1685 38.2607 78.7861 35.4531 75.9734C32.8506 76.2769 30.45 77.5279 28.7072 79.4887C26.9645 81.4495 26.0011 83.9837 26 86.6096V89.3615C26 93.6084 27.5106 97.7219 30.2658 100.955C37.7047 109.686 49.0389 114 63.9834 114C78.9278 114 90.2668 109.686 97.72 100.955C100.482 97.7207 102 93.6041 102 89.3472V86.6096C102 83.7702 100.875 81.0469 98.8729 79.0382C96.8705 77.0295 94.1544 75.8998 91.3213 75.8973H80.6094C80.6094 78.4587 80.0394 80.8773 79.0086 83.0388H91.3213C92.2646 83.0414 93.1683 83.4187 93.8344 84.0881C94.5005 84.7575 94.8746 85.6643 94.8745 86.6096V89.3472C94.8753 91.9013 93.9656 94.3716 92.3094 96.3127C86.3383 103.302 76.9944 106.854 63.9834 106.854C50.9723 106.854 41.638 103.302 35.6859 96.3174C34.0307 94.3776 33.1211 91.9092 33.1207 89.3568V86.6096C33.1207 85.6626 33.4961 84.7544 34.1642 84.0847C34.8323 83.4151 35.7385 83.0388 36.6834 83.0388L44.9679 83.0436ZM44.9822 47.3357C44.9831 44.0508 45.8317 40.822 47.4455 37.963C49.0594 35.104 51.3837 32.7119 54.1926 31.0193C57.0015 29.3267 60.1994 28.3911 63.4757 28.3033C66.752 28.2156 69.9953 28.9787 72.8903 30.5185C75.7854 32.0583 78.2339 34.3225 79.9978 37.091C81.7618 39.8596 82.7812 43.0384 82.9572 46.3185C83.1331 49.5987 82.4595 52.8686 81.0018 55.8108C79.5442 58.7529 77.352 61.2671 74.6383 63.1091C71.6486 60.608 67.8777 59.2381 63.9834 59.2383C67.133 59.2383 70.1537 57.9843 72.3808 55.7521C74.6079 53.52 75.8591 50.4925 75.8591 47.3357C75.8591 44.1789 74.6079 41.1514 72.3808 38.9193C70.1537 36.6871 67.133 35.4331 63.9834 35.4331C60.8337 35.4331 57.8131 36.6871 55.586 38.9193C53.3588 41.1514 52.1076 44.1789 52.1076 47.3357C52.1076 50.4925 53.3588 53.52 55.586 55.7521C57.8131 57.9843 60.8337 59.2383 63.9834 59.2383C59.9266 59.2383 56.2119 60.6952 53.3332 63.1091C50.758 61.3672 48.6495 59.0177 47.1933 56.2671C45.7371 53.5166 44.9778 50.4495 44.9822 47.3357Z" fill="#8D5DFF"/>
</svg>
