<svg width="128" height="128" viewBox="0 0 128 128" fill="none" xmlns="http://www.w3.org/2000/svg">
<path d="M105.6 63.9931C105.6 41.0191 86.974 22.3931 64 22.3931C41.026 22.3931 22.4 41.0191 22.4 63.9931C22.4 86.9671 41.026 105.593 64 105.593C86.974 105.593 105.6 86.9671 105.6 63.9931Z" stroke="#8D5DFF" stroke-width="7" stroke-miterlimit="10"/>
<path d="M101.914 47.2212C98.7019 47.2412 99.0179 53.1672 95.0159 50.3712C93.5299 49.3352 92.6159 47.8292 90.7499 47.3712C89.1199 46.9712 87.4499 47.3872 85.8399 47.6652C84.0099 47.9812 81.8399 48.1232 80.4519 49.5092C79.1099 50.8432 78.3999 52.6332 76.9719 53.9752C74.2099 56.5752 73.0439 59.4132 74.8319 63.0892C76.5519 66.6232 80.1499 68.5412 84.0319 68.2892C87.8459 68.0352 91.8079 65.8232 91.6979 71.3652C91.6579 73.3252 92.0679 74.6852 92.6699 76.5072C93.2279 78.1872 93.1899 79.8152 93.3179 81.5492C93.5539 84.7892 94.1499 88.4212 95.7579 91.2832L98.7579 87.0512C99.1279 86.5272 99.9019 85.7932 100.086 85.1752C100.412 84.0812 99.7699 82.2012 99.6959 80.9752C99.6219 79.7492 99.6579 78.5072 99.4699 77.2812C99.2059 75.5632 98.1899 73.9532 98.0499 72.2552C97.7919 69.0932 98.3699 66.5692 95.9339 63.9252C93.5819 61.3752 90.1339 60.7632 86.8399 61.2812C85.1799 61.5412 78.4979 62.6092 81.1799 58.8152C81.7099 58.0692 82.6359 57.4572 83.2319 56.7472C83.7499 56.1292 84.1999 54.9932 84.8079 54.5112C85.4159 54.0292 88.2079 53.4752 89.0079 53.7212C89.8079 53.9672 90.6419 55.1212 91.3359 55.6332C92.6182 56.599 94.1145 57.2411 95.6979 57.5052C98.4299 57.9052 104.142 56.3172 104.098 52.8132C104.09 51.1332 102.53 48.7932 101.914 47.2212ZM70.2899 76.0532C69.2239 71.5652 63.1259 70.0652 59.8379 67.6312C57.9479 66.2312 56.2659 64.0692 53.7839 63.8932C52.6399 63.8112 51.6819 64.0592 50.5479 63.7652C49.5079 63.4972 48.6919 62.9372 47.5839 63.0832C45.5139 63.3552 44.2079 65.5672 41.9839 65.2672C39.8739 64.9832 37.6999 62.5152 37.2199 60.5052C36.6039 57.9212 38.6479 57.0832 40.8379 56.8532C41.7519 56.7572 42.7779 56.6532 43.6559 56.9872C44.8119 57.4172 45.3579 58.5492 46.3959 59.1212C48.3419 60.1872 48.7359 58.4832 48.4379 56.7552C47.9919 54.1672 47.4719 53.1112 49.7799 51.3312C51.3799 50.1032 52.7479 49.2152 52.4919 47.0092C52.3399 45.7132 51.6299 45.1272 52.2919 43.8372C52.7939 42.8552 54.1719 41.9692 55.0699 41.3832C57.3879 39.8712 64.9999 39.9832 61.8899 35.7512C60.9759 34.5092 59.2899 32.2892 57.6899 31.9852C55.6899 31.6072 54.8019 33.8392 53.4079 34.8232C51.9679 35.8412 49.1639 36.9972 47.7219 35.4232C45.7819 33.3052 49.0079 32.6092 49.7219 31.1312C50.4359 29.6532 48.0679 26.8592 46.7999 26.1512L40.8379 32.8372C40.6666 33.957 40.7262 35.0999 41.0131 36.1957C41.2999 37.2915 41.8079 38.317 42.5059 39.2092C43.6919 40.7352 45.5799 41.2252 45.6659 43.3092C45.7499 45.3092 45.4379 46.3332 44.1299 47.7392C43.5639 48.3392 43.1639 49.1912 42.5879 49.7532C41.8819 50.4392 42.1439 50.2292 41.0419 50.4172C38.9699 50.7672 37.2059 51.3072 35.2039 51.8592C31.8679 52.7812 31.5599 47.3312 30.0399 45.1932L25.0399 49.2312C24.9859 49.8932 25.8599 51.1112 26.0979 51.8312C27.4639 55.9452 30.2199 59.1272 31.9999 63.0632C33.8739 67.2312 38.9059 66.0752 41.1279 69.7272C43.0999 72.9672 40.9939 77.0692 42.4699 80.4612C43.5419 82.9232 46.0699 83.4612 47.8139 85.2612C49.5959 87.0792 49.5579 89.5672 49.8299 91.9332C50.1365 94.7162 50.6343 97.4747 51.3199 100.189C51.5619 101.127 51.7839 102.367 52.4259 103.141C52.8659 103.673 54.3759 104.131 53.7659 104.307C54.6179 104.447 56.1359 105.243 56.8459 104.659C57.7819 103.891 57.5319 101.527 57.6939 100.459C58.1799 97.2792 59.7719 94.1692 61.9199 91.7892C64.0419 89.4412 66.9499 87.8512 68.7419 85.1892C70.4879 82.5932 71.0139 79.0912 70.2899 76.0532ZM63.6119 81.3172C62.4119 83.4592 59.7399 84.8932 58.0219 86.5952C57.5559 87.0572 56.5639 88.6572 55.9799 88.3112C55.5619 88.0632 55.4199 85.9872 55.2659 85.5112C54.4714 83.1143 52.9547 81.022 50.9239 79.5212C50.2979 79.0472 48.7459 78.4312 48.3879 77.7812C47.9879 77.0752 48.3479 75.4092 48.3619 74.6412C48.3839 73.5212 47.8739 71.6592 48.1499 70.6412C48.4699 69.4672 47.8539 70.1752 48.9039 69.9432C49.4579 69.8192 51.7459 70.2212 52.4359 70.3652C53.5319 70.5932 54.1359 71.2752 54.9999 71.9652C57.2719 73.7872 59.7739 75.1972 62.3199 76.5932C64.2919 77.6852 64.8719 79.0672 63.6119 81.3172ZM49.6919 26.2112C50.6399 27.1372 51.5319 28.2332 52.9459 28.3252C54.2839 28.4152 55.5459 27.6912 56.7139 28.6012C58.0099 29.6012 58.9439 30.8672 60.6639 31.1792C62.3279 31.4812 64.0899 30.5092 64.5019 28.8072C64.9019 27.1852 64.0399 25.4212 63.9879 23.7932C63.9879 23.5672 64.1099 22.5632 63.9539 22.3932C63.8379 22.2652 62.8699 22.4092 62.7219 22.4132C61.6379 22.4452 60.5565 22.5199 59.4779 22.6372C55.5455 23.0629 51.6944 24.0495 48.0419 25.5672C48.5279 25.9032 49.1379 26.0372 49.6919 26.2112ZM84.0799 37.4472C85.7779 37.4472 87.5019 36.6872 86.9539 34.7232C86.4939 33.0772 85.7099 31.2912 83.8019 32.1792C82.5879 32.7432 80.8679 34.1792 80.7259 35.6032C80.5639 37.2192 82.9479 37.4472 84.0799 37.4472ZM82.7239 46.0412C84.4579 47.0792 87.0299 46.5912 88.3379 45.1092C89.3599 43.9492 89.9619 41.9352 91.7999 41.9372C92.6091 41.9356 93.3864 42.2524 93.9639 42.8192C94.7239 43.6052 94.5739 44.3432 94.7359 45.3272C95.0979 47.5372 97.4679 45.4532 98.0859 44.5972C98.4859 44.0392 99.0279 43.2112 98.8459 42.4852C98.6779 41.8072 97.8859 41.0852 97.5339 40.4632C96.5059 38.6632 95.6599 36.5692 94.1199 35.1152C92.6379 33.7152 90.8159 33.8772 89.4099 35.3312C88.2579 36.5312 86.9199 37.4812 86.1319 38.9412C85.5759 39.9672 84.9499 40.4572 83.8239 40.7232C83.2039 40.8692 82.4959 40.9232 81.9759 41.3392C80.5279 42.4792 81.3519 45.2172 82.7239 46.0412Z" fill="#8D5DFF"/>
</svg>
