<svg width="128" height="128" viewBox="0 0 128 128" fill="none" xmlns="http://www.w3.org/2000/svg">
<path d="M48 58.6675L58.6675 69.3325L80 48" stroke="#8D5DFF" stroke-width="8" stroke-linecap="round" stroke-linejoin="round"/>
<path d="M64 112L68.6925 109.972C78.5313 105.75 87.0275 98.9167 93.2606 90.2117C99.4937 81.5066 103.226 71.262 104.054 60.5875L106.348 31.1475C106.385 29.9283 106.003 28.7332 105.264 27.7621C104.526 26.791 103.477 26.1028 102.292 25.8125L64 16L25.7075 25.6C24.5232 25.8902 23.4744 26.5781 22.7363 27.5486C21.9983 28.5192 21.6157 29.7137 21.6525 30.9325L23.9462 60.3725C24.7733 71.0474 28.5056 81.2926 34.7387 89.9981C40.9719 98.7036 49.4682 105.538 59.3075 109.76L64 112Z" stroke="#8D5DFF" stroke-width="8" stroke-linecap="round" stroke-linejoin="round"/>
</svg>
