<svg width="29" height="26" viewBox="0 0 29 26" fill="none" xmlns="http://www.w3.org/2000/svg">
<path d="M14.313 17.5444L18.6357 22.459C20.2357 24.279 21.037 25.1897 21.8757 24.967C22.713 24.7457 23.001 23.5484 23.5757 21.1524L26.7623 7.86171C27.649 4.17104 28.0917 2.32704 27.1077 1.41638C26.1237 0.505711 24.4183 1.18304 21.0077 2.53638L5.18632 8.82038C2.45832 9.90438 1.09432 10.4457 1.00765 11.3764C0.997448 11.4712 0.997448 11.5669 1.00765 11.6617C1.09165 12.5937 2.45299 13.139 5.17832 14.231C6.41165 14.7257 7.02899 14.9737 7.47165 15.447C7.52143 15.5004 7.56943 15.5555 7.61565 15.6124C8.02365 16.119 8.19699 16.7857 8.54499 18.1137L9.19699 20.603C9.53432 21.8964 9.70365 22.5444 10.1477 22.6324C10.5917 22.7204 10.977 22.1844 11.749 21.111L14.313 17.5444ZM14.313 17.5444L13.8903 17.1044C13.4077 16.6004 13.1663 16.3497 13.1663 16.0377C13.1663 15.7257 13.4063 15.4737 13.8903 14.971L18.6543 10.0057" stroke="black" stroke-width="2" stroke-linecap="round" stroke-linejoin="round"/>
</svg>
