<svg width="28" height="28" viewBox="0 0 28 28" fill="none" xmlns="http://www.w3.org/2000/svg">
<path d="M23.3999 4.54664C22.1774 3.31211 20.7213 2.33326 19.1166 1.66712C17.5119 1.00098 15.7907 0.660881 14.0533 0.666637C6.77328 0.666637 0.839943 6.59997 0.839943 13.88C0.839943 16.2133 1.45328 18.48 2.59994 20.48L0.733276 27.3333L7.73328 25.4933C9.66661 26.5466 11.8399 27.1066 14.0533 27.1066C21.3333 27.1066 27.2666 21.1733 27.2666 13.8933C27.2666 10.36 25.8933 7.03997 23.3999 4.54664ZM14.0533 24.8666C12.0799 24.8666 10.1466 24.3333 8.45328 23.3333L8.05328 23.0933L3.89328 24.1866L4.99994 20.1333L4.73328 19.72C3.63667 17.9694 3.05451 15.9457 3.05328 13.88C3.05328 7.82664 7.98661 2.8933 14.0399 2.8933C16.9733 2.8933 19.7333 4.03997 21.7999 6.11997C22.8234 7.13845 23.6345 8.35003 24.1861 9.68441C24.7377 11.0188 25.0189 12.4494 25.0133 13.8933C25.0399 19.9466 20.1066 24.8666 14.0533 24.8666ZM20.0799 16.6533C19.7466 16.4933 18.1199 15.6933 17.8266 15.5733C17.5199 15.4666 17.3066 15.4133 17.0799 15.7333C16.8533 16.0666 16.2266 16.8133 16.0399 17.0266C15.8533 17.2533 15.6533 17.28 15.3199 17.1066C14.9866 16.9466 13.9199 16.5866 12.6666 15.4666C11.6799 14.5866 11.0266 13.5066 10.8266 13.1733C10.6399 12.84 10.7999 12.6666 10.9733 12.4933C11.1199 12.3466 11.3066 12.1066 11.4666 11.92C11.6266 11.7333 11.6933 11.5866 11.7999 11.3733C11.9066 11.1466 11.8533 10.96 11.7733 10.8C11.6933 10.64 11.0266 9.0133 10.7599 8.34664C10.4933 7.70664 10.2133 7.78664 10.0133 7.7733H9.37327C9.14661 7.7733 8.79994 7.8533 8.49328 8.18664C8.19994 8.51997 7.34661 9.31997 7.34661 10.9466C7.34661 12.5733 8.53328 14.1466 8.69328 14.36C8.85328 14.5866 11.0266 17.92 14.3333 19.3466C15.1199 19.6933 15.7333 19.8933 16.2133 20.04C16.9999 20.2933 17.7199 20.2533 18.2933 20.1733C18.9333 20.08 20.2533 19.3733 20.5199 18.6C20.7999 17.8266 20.7999 17.1733 20.7066 17.0266C20.6133 16.88 20.4133 16.8133 20.0799 16.6533Z" fill="black"/>
</svg>
